PathFileType	4	(X/Y/Z)	C:/Users/opensim2020/Desktop/walking_exp_matlab/subject02_walking06_straight_04.trc	
DataRate	CameraRate	NumFrames	NumMarkers	Units	OrigDataRate	OrigDataStartFrame	OrigNumFrames	
100.00	100.00	5	41	mm	100.00	2682	216	
Frame#	Time	LFHD			RFHD			LBHD			RBHD			C7			T10			CLAV			STRN			RBAK			LSHO			LUPA			LELB			LFRM			LWRA			LWRB			LFIN			RSHO			RUPA			RELB			RFRM			RWRA			RWRB			RFIN			LASI			RASI			LPSI			RPSI			LTHI			LKNE			LTIB			LANK			LHEE			LTOE			RTHI			RKNE			RTIB			RANK			RHEE			RTOE			*39			*40			
		X1	Y1	Z1	X2	Y2	Z2	X3	Y3	Z3	X4	Y4	Z4	X5	Y5	Z5	X6	Y6	Z6	X7	Y7	Z7	X8	Y8	Z8	X9	Y9	Z9	X10	Y10	Z10	X11	Y11	Z11	X12	Y12	Z12	X13	Y13	Z13	X14	Y14	Z14	X15	Y15	Z15	X16	Y16	Z16	X17	Y17	Z17	X18	Y18	Z18	X19	Y19	Z19	X20	Y20	Z20	X21	Y21	Z21	X22	Y22	Z22	X23	Y23	Z23	X24	Y24	Z24	X25	Y25	Z25	X26	Y26	Z26	X27	Y27	Z27	X28	Y28	Z28	X29	Y29	Z29	X30	Y30	Z30	X31	Y31	Z31	X32	Y32	Z32	X33	Y33	Z33	X34	Y34	Z34	X35	Y35	Z35	X36	Y36	Z36	X37	Y37	Z37	X38	Y38	Z38	X39	Y39	Z39	X40	Y40	Z40	X41	Y41	Z41	

28	0.270	-988.32397	486.63043	1751.33875	-1132.25537	491.16281	1737.69104	-977.52661	611.81091	1669.02771	-1120.33435	629.24390	1653.08350	-1054.29797	667.55841	1535.77161	-1073.59912	727.61523	1262.79199	-1044.90845	530.03198	1463.83337	-1061.55847	482.07547	1291.15991	-1127.73511	728.13922	1367.56421	-874.27356	597.59985	1501.01257	-799.35474	621.05450	1298.81335	-791.98810	636.34711	1159.87500	-775.54602	641.05853	1029.95068	-796.76923	596.16644	897.27002	-768.70844	644.51526	907.16541	-760.33398	634.19794	841.80170	-1240.25110	588.26160	1509.15906	-1336.67151	605.32410	1320.19922	-1353.27905	583.40387	1173.69678	-1369.01465	545.58777	1059.64514	-1345.16626	492.40097	936.41211	-1383.70776	533.62646	930.88239	-1382.74500	491.79709	871.71375	-938.45984	503.91220	1000.75763	-1193.22400	494.39304	986.35919	-1023.34149	708.97992	1041.43335	-1138.75146	708.92853	1043.52881	-876.13177	497.48981	694.15155	-910.26678	465.42627	502.23700	-939.53564	544.07843	330.14700	-981.49127	565.17426	110.89355	-1044.34814	584.37000	88.28454	-930.60492	433.55280	52.43139	-1253.96887	573.89203	679.16858	-1211.51746	587.34888	469.17365	-1220.54712	641.25134	287.71216	-1182.38098	675.50403	97.20238	-1128.82275	716.29523	44.62299	-1194.12537	525.69257	40.47361	-1072.38269	595.12225	1813.68140	-3360.16406	2845.21045	1033.74756 
29	0.280	-988.55536	476.94547	1750.70520	-1132.44507	480.99457	1737.38550	-978.32025	602.37738	1668.84460	-1121.29114	619.35950	1653.17188	-1055.71606	657.95837	1535.56262	-1074.90222	718.28442	1262.64832	-1045.90283	520.52979	1463.46460	-1063.13696	472.61853	1290.80029	-1129.89355	718.72083	1367.48938	-875.48755	588.95197	1500.30579	-799.79065	616.66156	1298.89722	-791.77344	633.48822	1160.44617	-774.35071	641.02863	1030.76880	-794.20911	598.24609	897.40643	-766.48486	646.90448	908.06067	-757.56390	637.35059	842.57483	-1241.31421	578.25616	1509.28088	-1338.25354	593.15851	1320.53650	-1355.66724	568.77289	1174.29883	-1370.96411	528.12048	1061.29517	-1346.12000	472.11615	939.13135	-1385.07458	513.14282	932.56610	-1383.46130	469.50684	874.66870	-940.21600	494.00925	1000.83972	-1195.05920	486.43747	984.82971	-1023.78296	699.74194	1041.66663	-1139.13013	700.48572	1043.33960	-877.36902	486.41040	695.05170	-912.64136	453.69333	502.03513	-940.54156	523.57574	325.19983	-980.54022	532.06512	104.33990	-1042.80249	550.38184	80.85835	-929.91296	397.26260	52.96838	-1254.28613	568.43359	678.67065	-1212.01880	584.36664	468.69406	-1220.67346	639.67438	287.68134	-1182.27979	675.19275	97.34473	-1128.66516	716.16510	44.85288	-1194.20715	525.60400	40.44607	-1072.85718	585.01910	1813.58337	-3360.28345	2845.17578	1033.96313 
30	0.290	-989.18433	466.69644	1749.86609	-1132.70557	470.86484	1736.93884	-979.04224	592.90961	1668.03235	-1122.10950	609.47882	1653.02551	-1056.98340	648.33319	1535.24805	-1075.93945	708.63654	1262.24744	-1046.74805	511.05081	1462.95544	-1064.50977	463.12698	1290.31189	-1131.36304	709.12354	1367.48535	-876.68225	580.26501	1499.51868	-800.37878	611.80212	1299.10681	-791.44202	630.55096	1161.02698	-773.00623	640.49402	1031.56165	-791.44611	600.42859	897.28662	-764.34015	648.97272	909.14966	-754.89136	640.16125	843.53906	-1242.29773	568.25757	1509.13452	-1339.94006	581.17236	1320.71362	-1357.84033	554.19067	1174.80200	-1372.16577	510.71014	1062.40076	-1346.97424	451.95221	942.11835	-1386.01196	492.64853	934.27222	-1384.21082	447.29224	877.75031	-941.77032	484.03128	1000.66541	-1196.88403	477.64218	983.78052	-1024.19678	690.50677	1041.66956	-1139.49219	691.92865	1042.97620	-878.56696	475.46915	695.25092	-914.85529	442.24625	501.67941	-940.79297	503.22018	320.50537	-978.77386	499.24893	98.88268	-1040.68933	516.90771	74.06634	-928.56995	361.52008	54.94375	-1254.70374	563.10339	678.08838	-1212.10901	581.16827	468.07614	-1220.74780	637.92731	287.62350	-1182.18030	674.87354	97.53827	-1128.46350	716.06592	45.07666	-1194.27002	525.66003	40.35058	-1073.16553	574.82758	1813.26489	-3360.30176	2845.22803	1033.82397 
31	0.300	-988.76691	457.38382	1748.95227	-1132.85522	460.72855	1736.33398	-979.45789	583.90912	1667.82971	-1122.83948	599.59576	1652.80396	-1058.10779	638.81458	1534.74658	-1076.69092	699.35663	1261.77661	-1047.59729	501.53476	1462.34656	-1065.84985	453.67487	1289.71057	-1132.77393	699.64655	1367.18054	-877.77875	571.65912	1498.67346	-801.06311	606.71997	1299.11365	-791.07184	627.59711	1161.64453	-771.53644	639.55011	1032.52148	-789.03650	602.20349	897.38361	-762.26221	650.56500	910.25995	-752.29895	642.92334	844.61188	-1242.77576	558.32770	1508.80444	-1341.24695	569.17993	1320.78540	-1359.90784	539.70374	1175.23022	-1374.12244	493.60553	1063.86841	-1347.76917	431.79526	945.16205	-1386.77441	472.00336	935.91016	-1384.63208	425.31357	880.78082	-943.03650	473.97836	1000.17798	-1198.36609	469.31674	982.23718	-1024.40857	680.99127	1041.12158	-1139.65369	683.32147	1042.41980	-879.76880	464.87082	695.00812	-916.73871	430.86267	501.10349	-940.63025	482.43317	316.16489	-976.54956	466.75632	94.32798	-1038.24133	483.05365	68.18729	-926.76843	326.43790	58.23137	-1254.98621	557.70886	677.34772	-1212.42810	577.90747	467.51611	-1220.83447	636.17297	287.59042	-1181.94580	674.63763	97.79012	-1128.21265	715.90686	45.32455	-1194.42358	525.61584	40.24985	-1073.47339	564.69110	1812.90833	-3357.39526	2845.79443	1033.92505 
32	0.310	-988.82056	447.63300	1747.89941	-1133.00793	450.48779	1735.45667	-979.99677	574.43036	1666.95142	-1123.78796	589.91187	1652.55579	-1059.09998	629.25470	1534.15381	-1077.28516	690.39142	1261.24072	-1048.28186	492.03201	1461.52307	-1067.01208	444.15680	1288.89648	-1133.98962	690.83441	1366.53076	-878.76965	562.93469	1497.71301	-801.47583	601.90784	1299.81018	-790.82074	624.58862	1162.37073	-770.50958	639.25146	1033.74219	-786.40985	603.67426	897.69312	-760.18896	652.01727	911.47174	-749.65057	645.20331	845.79218	-1243.70923	548.40265	1508.50513	-1342.46057	557.25439	1320.68909	-1361.97827	525.29492	1175.70959	-1375.17590	476.42676	1065.14941	-1348.48633	411.91187	948.26233	-1387.46594	451.67236	937.76605	-1385.06665	403.53302	884.01459	-944.07825	463.80994	999.44971	-1199.74658	460.99725	981.08875	-1024.57019	671.53406	1040.39612	-1139.71472	674.58081	1041.65735	-880.95490	454.56033	694.41016	-918.24512	419.40857	500.35498	-939.92633	461.92871	312.24313	-973.83893	434.83807	90.95317	-1035.33997	450.27338	63.08970	-924.55804	292.50070	62.59186	-1255.34607	552.22412	676.62085	-1212.72559	574.51855	466.89523	-1220.84851	634.35229	287.56888	-1181.80286	674.28314	98.05255	-1128.01672	715.74524	45.70980	-1194.63867	525.58929	40.15413	-1073.63513	554.45129	1812.27124	-3360.10742	2845.13843	1033.99426 
